<svg width="22" height="22" viewBox="0 0 22 22" fill="none" xmlns="http://www.w3.org/2000/svg">
<path fill-rule="evenodd" clip-rule="evenodd" d="M18.4139 1.0127C18.0982 1.04517 17.8421 1.1297 17.5118 1.3104C17.2252 1.46717 17.1492 1.54217 14.9289 3.86028C14.1385 4.68541 13.4653 5.36017 13.4328 5.35966C13.4003 5.35919 11.3263 4.67996 8.82388 3.85032L4.27402 2.34188L2.93044 3.68476L1.58689 5.02767L5.41054 7.38077C7.51356 8.67501 9.23454 9.74847 9.23497 9.76627C9.23556 9.79142 7.76137 11.3426 6.21936 12.9394L6.07827 13.0855L4.9212 12.891C4.2848 12.784 3.71988 12.6962 3.66583 12.6958C3.58875 12.6954 3.29085 12.9721 2.28377 13.9798L1 15.2643L3.128 16.008L5.25604 16.7517L6.00057 18.8805L6.74506 21.0093L8.02961 19.7255C8.86357 18.8921 9.31412 18.4143 9.31409 18.3632C9.31401 18.3199 9.2265 17.755 9.11958 17.1078L8.92515 15.9311L9.07063 15.7901C10.3289 14.5699 12.2183 12.7739 12.2431 12.7745C12.2609 12.7749 13.3344 14.4959 14.6286 16.5989L16.9817 20.4226L18.3245 19.079L19.6674 17.7354L18.1582 13.1855C17.3282 10.6831 16.6534 8.60531 16.6588 8.56821C16.6641 8.53111 17.4539 7.74959 18.4139 6.8315C19.3739 5.91337 20.2616 5.05238 20.3868 4.91816C20.6313 4.6558 20.8521 4.25624 20.9444 3.90931C21.0185 3.63016 21.0186 3.04566 20.9444 2.7609C20.6506 1.63289 19.5794 0.89283 18.4139 1.0127ZM19.1827 2.23822C19.442 2.35894 19.6549 2.57467 19.7761 2.83939C19.8596 3.02169 19.871 3.09551 19.8589 3.37231C19.8485 3.60878 19.8204 3.7432 19.7526 3.8815C19.6804 4.02886 19.1929 4.51817 17.4936 6.14921L15.3268 8.22905L16.8544 12.8408L18.3819 17.4526L17.8007 18.0348C17.3477 18.4886 17.2094 18.6063 17.1739 18.5684C17.1488 18.5417 16.0826 16.8195 14.8045 14.7413L12.4806 10.9628L12.2604 11.1758C12.1393 11.2929 11.14 12.25 10.0398 13.3026C8.93958 14.3552 7.96486 15.289 7.8737 15.3777L7.70798 15.5389L7.90253 16.696C8.00953 17.3324 8.09731 17.8975 8.09766 17.9518C8.0981 18.0256 7.98964 18.1588 7.6681 18.4793C7.4315 18.7152 7.22778 18.898 7.21534 18.8855C7.20287 18.8731 6.96212 18.2032 6.6803 17.397C6.39849 16.5908 6.14774 15.9106 6.12306 15.8855C6.09843 15.8604 5.41803 15.6091 4.6111 15.327C3.80417 15.0449 3.13436 14.8045 3.12259 14.7928C3.11086 14.781 3.29423 14.5779 3.53008 14.3413C3.85064 14.0198 3.98381 13.9113 4.05762 13.9117C4.11191 13.9121 4.67703 13.9999 5.31342 14.1069L6.4705 14.3014L6.63175 14.1357C6.72043 14.0446 7.65417 13.0698 8.7068 11.9696C9.75938 10.8694 10.7164 9.87018 10.8336 9.74906L11.0466 9.52886L7.42495 7.30084C5.43305 6.07544 3.70791 5.01245 3.59122 4.93868L3.37915 4.80449L3.9678 4.21584L4.55646 3.62718L9.16916 5.15507L13.7819 6.68296L15.8113 4.56673C16.9275 3.40278 17.8963 2.40813 17.9642 2.35632C18.2668 2.12553 18.8246 2.07148 19.1827 2.23822Z" fill="#5F626B" stroke="#5F626B" stroke-width="0.5"/>
</svg>
