<svg width="68" height="64" viewBox="0 0 68 64" fill="none" xmlns="http://www.w3.org/2000/svg">
<path fill-rule="evenodd" clip-rule="evenodd" d="M3.86883 0.257694C2.37644 0.777755 1.10668 2.08534 0.40312 3.82619C0.10394 4.56657 0.0877876 4.81846 0.0449473 9.38036L0 14.159H33.8666H67.7332L67.6908 9.58481L67.6485 5.01074L67.1682 4.05741C66.2923 2.31882 64.2967 0.762181 62.2344 0.208846C61.6581 0.0543707 60.554 0.00297327 57.7812 0.00169896L54.0941 0V3.5188C54.0941 6.94146 54.0854 7.05077 53.7752 7.51873C52.9373 8.78313 51.1776 8.78313 50.3396 7.51873C50.0295 7.05077 50.0207 6.94146 50.0207 3.5188V0H33.0251H16.0294V3.5188C16.0294 6.94146 16.0207 7.05077 15.7106 7.51873C14.8726 8.78313 13.1129 8.78313 12.2749 7.51873C11.9648 7.05077 11.9561 6.94146 11.9561 3.5188V0L8.26902 0.00467261C5.12609 0.00849555 4.47674 0.0458752 3.86883 0.257694ZM0.0498634 38.9727C0.0852593 58.3277 0.100569 59.4342 0.343284 60.1051C0.973949 61.8493 2.32911 63.2144 3.92951 63.718C4.80738 63.9941 5.29464 63.9988 33.221 63.9988C64.7293 63.9988 62.3113 64.073 64.2475 63.0473C65.4565 62.4069 66.5227 61.4372 67.1158 60.4388C68.046 58.8728 67.9996 60.0351 67.9996 38.2704V18.5483H34.0061H0.0123605L0.0498634 38.9727ZM19.8199 26.7255C20.6126 27.1262 20.6603 27.3511 20.6625 30.7037C20.6642 33.2111 20.6254 33.8096 20.435 34.2143C20.0393 35.0549 19.7711 35.1144 16.3806 35.1144C11.9485 35.1144 12.0966 35.2652 12.0966 30.7506C12.0966 27.907 12.1088 27.7752 12.4168 27.3145C12.9468 26.5218 13.1369 26.4818 16.3806 26.4797C18.911 26.4781 19.3999 26.5131 19.8199 26.7255ZM36.4616 26.6786C37.3382 27.0479 37.399 27.3486 37.3514 31.0823C37.3101 34.3165 37.3011 34.4072 36.9894 34.7213C36.6777 35.0355 36.5879 35.0446 33.3795 35.0862C28.5964 35.1482 28.7735 35.3239 28.839 30.5811C28.8812 27.5076 28.8835 27.4886 29.2327 27.1102C29.4258 26.9009 29.7102 26.6769 29.8647 26.6125C30.0192 26.548 31.4592 26.4913 33.0647 26.4863C35.2861 26.4795 36.0979 26.5255 36.4616 26.6786ZM53.5446 26.8002C54.3299 27.3337 54.3706 27.5287 54.3729 30.765C54.3751 33.9274 54.2862 34.4387 53.6563 34.8835C53.3766 35.081 52.8541 35.1144 50.0456 35.1144H46.7621L46.2845 34.633L45.8069 34.1516V30.8416C45.8069 28.0125 45.8402 27.4837 46.0356 27.2023C46.4751 26.5698 46.9336 26.4889 50.1053 26.4829C52.9627 26.4775 53.0864 26.489 53.5446 26.8002ZM20.187 46.2151L20.6646 46.6965L20.664 49.861C20.6633 54.4616 20.752 54.3707 16.2654 54.3707C13.5176 54.3707 13.383 54.3576 12.927 54.0478C12.1425 53.5149 12.1009 53.3174 12.0987 50.1087C12.0963 46.876 12.1807 46.417 12.8524 46.0041C13.2492 45.7601 13.5933 45.7347 16.5 45.7342L19.7095 45.7337L20.187 46.2151ZM36.9018 46.2151L37.3793 46.6965V50.0357V53.375L36.9698 53.8374L36.5602 54.2999L33.3491 54.3425C30.185 54.3844 30.1311 54.3802 29.6524 54.0551C28.856 53.5141 28.8156 53.3242 28.8134 50.1087C28.811 46.876 28.8954 46.417 29.5671 46.0041C29.9639 45.7601 30.308 45.7347 33.2147 45.7342L36.4242 45.7337L36.9018 46.2151ZM53.5502 45.9554C54.2796 46.3357 54.375 46.809 54.375 50.0522C54.375 53.4006 54.2824 53.8219 53.4716 54.1634C52.7809 54.4542 47.4197 54.4621 46.7338 54.1733C45.8318 53.7934 45.8069 53.6816 45.8069 50.0064V46.6965L46.2845 46.2151L46.7621 45.7337H49.9435C52.5566 45.7337 53.2008 45.7733 53.5502 45.9554Z" fill="white"/>
</svg>
