<svg width="51" height="49" viewBox="0 0 51 49" fill="none" xmlns="http://www.w3.org/2000/svg">
<path d="M25.2056 0.00012207H26.7066C32.8399 0.00012207 38.6504 2.54312 44.138 7.62912C47.9955 12.1955 50.1179 16.3289 50.5053 20.0292C50.7958 21.777 50.9411 22.8871 50.9411 23.3595V25.3671C50.9411 28.6108 49.8113 32.3663 47.5516 36.6335C44.2591 41.8927 39.5703 45.5458 33.4855 47.5928C30.4027 48.3643 27.9898 48.7501 26.2467 48.7501H25.6656C19.2903 48.7501 13.3749 46.2465 7.91952 41.2392C3.2873 36.232 0.971191 30.4138 0.971191 23.7846V23.5012C0.971191 23.2808 1.01961 23.0918 1.11645 22.9344C1.11645 22.8241 1.06803 22.769 0.971191 22.769C1.60066 18.0767 2.8838 14.2819 4.82062 11.3846C7.88724 6.51902 12.6163 3.05487 19.0078 0.992128C21.3965 0.330791 23.4625 0.00012207 25.2056 0.00012207ZM21.8162 15.5652L21.9614 20.0292C21.9614 20.1709 21.8162 20.3205 21.5257 20.478H19.0078V25.5088H21.5257C21.6709 25.5088 21.8162 25.6584 21.9614 25.9576V38.3577L22.0341 39.2316H27.2877V25.8159C27.32 25.6112 27.4168 25.5088 27.5782 25.5088H31.8634C32.0571 25.5088 32.3073 23.9264 32.6139 20.7614V20.478H27.5782C27.3845 20.478 27.2877 20.3835 27.2877 20.1945V16.7225C27.2877 15.2424 28.1754 14.4236 29.9508 14.2661H32.9045V9.9438C32.9045 9.66037 31.8715 9.51865 29.8056 9.51865H29.055C25.6495 9.51865 23.4302 10.7626 22.3972 13.2505C22.2035 13.7701 22.0099 14.5417 21.8162 15.5652Z" fill="#0D76D8"/>
</svg>
