<svg width="33" height="38" viewBox="0 0 33 38" fill="none" xmlns="http://www.w3.org/2000/svg">
<path d="M18.3548 11.4018C18.2853 11.5334 18.2503 11.6718 18.2311 11.9356C18.2122 12.1959 18.2077 12.5944 18.2077 13.2536L18.2076 14.6396H16.5039H14.8003L14.8002 13.2536C14.8002 12.5944 14.7957 12.1959 14.7767 11.9356C14.7575 11.6719 14.7226 11.5335 14.6531 11.4018C14.4482 11.0132 14.017 10.7554 13.5753 10.7554C13.3474 10.7554 13.1184 10.82 12.9311 10.9392C12.9148 10.9496 12.8982 10.9598 12.8814 10.9702C12.776 11.0355 12.6648 11.1045 12.583 11.2222C12.487 11.3604 12.4374 11.5512 12.4072 11.853C12.3512 12.4134 12.356 13.4534 12.3656 15.505C12.3663 15.6649 12.3671 15.8309 12.3679 16.0034C12.3774 18.1032 12.3829 19.179 12.405 19.753C12.416 20.0382 12.4312 20.21 12.456 20.3248C12.4688 20.3844 12.4849 20.4324 12.5064 20.4751C12.5278 20.5177 12.5518 20.5495 12.5721 20.5754C12.7128 20.7549 12.8575 20.8901 13.024 20.9793C13.1921 21.0694 13.3723 21.1072 13.5753 21.1072C13.7878 21.1072 13.9758 21.0656 14.1488 20.9671C14.3201 20.8696 14.4663 20.7222 14.6056 20.5273L14.4835 20.4401L14.6056 20.5273C14.6475 20.4686 14.688 20.409 14.7185 20.3262C14.7483 20.2453 14.7657 20.1504 14.7769 20.0208C14.7992 19.7651 14.8003 19.3334 14.8003 18.5221V16.9877H16.5039H18.2075V18.5221C18.2075 19.3334 18.2087 19.7651 18.231 20.0208C18.2422 20.1504 18.2596 20.2453 18.2894 20.3262C18.3199 20.409 18.3604 20.4686 18.4023 20.5273C18.5416 20.7222 18.6878 20.8696 18.8591 20.9671C19.0321 21.0656 19.2201 21.1072 19.4326 21.1072C19.6356 21.1072 19.8158 21.0694 19.9839 20.9793C20.1504 20.8901 20.2951 20.7549 20.4358 20.5754C20.4561 20.5495 20.4801 20.5177 20.5015 20.4751C20.5229 20.4324 20.5391 20.3844 20.5519 20.3248C20.5767 20.21 20.5919 20.0382 20.6029 19.753C20.625 19.179 20.6305 18.1032 20.64 16.0034C20.649 14.0182 20.6514 12.9396 20.6364 12.3292C20.6217 11.7283 20.5912 11.5519 20.5112 11.4014L20.3788 11.4718L20.5112 11.4014C20.0583 10.5488 18.8052 10.5479 18.3548 11.4018ZM18.3548 11.4018L18.4874 11.4718L18.3548 11.4018C18.3548 11.4018 18.3548 11.4018 18.3548 11.4018ZM1.34575 12.0275L1.49064 12.0664L1.34575 12.0275C0.612621 14.7632 0.697213 18.039 1.56903 20.5311L1.71062 20.4816L1.56903 20.5311C2.49699 23.1837 3.95519 25.1366 9.12917 30.711C10.0483 31.7012 11.6069 33.3906 12.5926 34.4649C13.086 35.0028 13.5628 35.5124 13.9335 35.9001C14.1188 36.0939 14.2781 36.2577 14.3999 36.3796C14.5169 36.4967 14.6096 36.5857 14.6557 36.6191C14.9357 36.8225 15.1818 36.9582 15.4714 37.0408C15.7585 37.1228 16.0793 37.1499 16.5039 37.15C16.8444 37.1501 17.0628 37.1448 17.2427 37.1171C17.4284 37.0885 17.5687 37.0366 17.7548 36.9535L17.6937 36.8165L17.7548 36.9535C18.3705 36.6784 18.6234 36.4371 20.1679 34.7369C20.9251 33.9032 22.5751 32.1081 23.8342 30.7478C26.3683 28.0103 27.7453 26.4622 28.567 25.4254C29.8777 23.7716 30.7751 22.3069 31.3438 20.789C31.9129 19.27 32.15 17.7055 32.15 15.8554C32.15 13.4881 31.652 11.3685 30.6133 9.31922C28.3198 4.79459 23.7558 1.63345 18.583 0.98153C17.5155 0.846992 16.7117 0.820467 15.5325 0.88012L15.5401 1.02992L15.5325 0.88012C8.84169 1.21883 3.0174 5.79016 1.34575 12.0275ZM29.0377 11.7843L29.1795 11.7354L29.0377 11.7843C29.4863 13.0854 29.6369 13.9386 29.6802 15.4296C29.7294 17.1282 29.5756 18.4927 29.1368 19.7846C28.6978 21.0772 27.9703 22.3066 26.8594 23.7312C25.8687 25.0016 25.073 25.9003 21.9516 29.2711C20.9083 30.3979 19.3945 32.0509 18.5876 32.9449C18.1846 33.3912 17.7979 33.8147 17.4994 34.1374C17.1964 34.465 16.9935 34.6786 16.9511 34.7153C16.8959 34.7633 16.8466 34.7912 16.7846 34.809C16.7186 34.8279 16.6313 34.8375 16.4965 34.8375C16.4584 34.8375 16.4137 34.8402 16.383 34.8421C16.3699 34.8429 16.3594 34.8435 16.3529 34.8437C16.3227 34.8447 16.3052 34.8429 16.286 34.8365C16.2381 34.8207 16.1548 34.7697 15.9579 34.5805C15.632 34.2676 15.0507 33.6345 13.8784 32.3579C13.6594 32.1195 13.4199 31.8586 13.1575 31.5732C11.8576 30.159 10.2636 28.4269 9.61531 27.7241C7.25405 25.1644 5.78732 23.4067 4.86297 21.8812C3.94261 20.3624 3.55884 19.0717 3.37218 17.4417C3.31155 16.912 3.29986 16.1312 3.3288 15.3608C3.35777 14.5898 3.42697 13.8418 3.52448 13.3765C4.5379 8.54204 8.27668 4.78131 13.2954 3.56079L13.26 3.41504L13.2954 3.56079C14.4751 3.2739 15.0536 3.22066 16.7611 3.24744C18.0768 3.26811 18.5219 3.30234 19.1059 3.42208C23.8464 4.39446 27.5743 7.5393 29.0377 11.7843ZM14.7734 5.49134L14.7986 5.63921L14.7734 5.49134C12.3475 5.90502 10.2943 6.92158 8.61463 8.54412C7.42216 9.696 6.5385 11.0823 5.99049 12.6604C5.59137 13.8097 5.4548 14.6431 5.4548 15.9227C5.4548 17.627 5.76016 18.934 6.50407 20.409C7.63977 22.6608 9.28802 24.2641 11.6057 25.3736C17.0144 27.9628 23.6469 25.8477 26.3861 20.6506C26.8301 19.8083 27.166 18.9076 27.3743 18.0012C27.4769 17.5547 27.5256 16.7315 27.5254 15.922C27.5252 15.1124 27.4761 14.2883 27.3734 13.8399C26.422 9.68832 23.1577 6.55232 18.8015 5.59076C18.3581 5.49286 17.5682 5.43157 16.789 5.41234C16.0099 5.39311 15.219 5.41538 14.7734 5.49134ZM18.1864 7.87581L18.215 7.72856L18.1864 7.87581C19.9624 8.22054 21.3328 8.91979 22.5981 10.125C23.8704 11.3369 24.7006 12.8364 24.9954 14.4466L25.143 14.4196L24.9954 14.4466C25.0634 14.8179 25.0986 15.3653 25.0987 15.918C25.0989 16.4707 25.0641 17.0162 24.9964 17.3839C24.4752 20.2148 22.3645 22.6126 19.4636 23.6526L19.5142 23.7938L19.4636 23.6526C17.7977 24.2498 15.5232 24.2741 13.7535 23.7108C10.7857 22.7661 8.54744 20.2947 8.01148 17.3839C7.9438 17.0162 7.90898 16.4707 7.90915 15.918C7.90933 15.3653 7.94448 14.8179 8.01247 14.4466L8.01248 14.4466C8.52835 11.6286 10.7 9.18486 13.5871 8.18936L13.5382 8.04756L13.5871 8.18936C14.9282 7.7269 16.771 7.60101 18.1864 7.87581ZM18.3575 14.6396V14.7896V14.6396Z" fill="#5F626B" stroke="#5F626B" stroke-width="0.3"/>
</svg>
