<svg width="190" height="66" viewBox="0 0 190 66" fill="none" xmlns="http://www.w3.org/2000/svg">
<path d="M28.336 14.168C28.336 21.9928 21.9928 28.336 14.168 28.336C6.34323 28.336 0 21.9928 0 14.168C0 6.34323 6.34323 3.68941e-09 14.168 3.68941e-09C21.9928 3.68941e-09 28.336 6.34323 28.336 14.168Z" fill="#0D76D8"/>
<path d="M50.4804 19.9739C50.4804 18.4955 49.2812 17.297 47.802 17.297C46.3228 17.297 45.1236 18.4955 45.1236 19.9739V30.0639H50.4804V19.9739Z" fill="#27292E"/>
<path d="M50.4804 53.7447H45.1236V65.688H50.4804V53.7447Z" fill="#27292E"/>
<path d="M50.4804 48.8025H46.5658V53.7445L50.4804 53.7447V48.8025Z" fill="#27292E"/>
<path d="M50.5834 38.4036L45.1236 36.8592V48.8024L50.4804 48.8025L50.5834 38.4036Z" fill="#27292E"/>
<path d="M56.7643 9.26621L49.1413 15.6497C45.8448 1.75014 61.503 -2.26528 66.1387 1.23541L60.0608 3.60347L61.503 5.35377L55.2191 7.51591L56.7643 9.26621Z" fill="#27292E"/>
<path d="M61.0722 17.3988L51.1277 17.504C57.3966 4.66676 72.0522 11.4847 73.416 17.1295L67.2138 15.1089L67.2186 17.3764L60.9877 15.066L61.0722 17.3988Z" fill="#27292E"/>
<path d="M59.3643 26.4079L51.6018 20.1946C64.5879 14.2283 71.6091 28.7815 69.0875 34.0131L65.5681 28.5235L64.135 30.2812L60.7771 24.5492L59.3643 26.4079Z" fill="#27292E"/>
<path d="M38.9028 9.22528L46.5258 15.6087C49.8223 1.70921 34.1641 -2.30621 29.5284 1.19448L35.6063 3.56254L34.1641 5.31284L40.448 7.47498L38.9028 9.22528Z" fill="#27292E"/>
<path d="M34.5949 17.3578L44.5394 17.4631C38.2705 4.62583 23.6149 11.4438 22.2512 17.0885L28.4533 15.068L28.4485 17.3354L34.6794 15.0251L34.5949 17.3578Z" fill="#27292E"/>
<path d="M34.5131 28.3757L26.8901 34.7591C23.5936 20.8596 39.2518 16.8442 43.8875 20.3449L37.8096 22.7129L39.2518 24.4632L32.9679 26.6254L34.5131 28.3757Z" fill="#27292E"/>
<path d="M38.8211 36.5082L28.8766 36.6135C35.1455 23.7762 49.8011 30.5942 51.1648 36.2389L44.9627 34.2184L44.9675 36.4858L38.7366 34.1755L38.8211 36.5082Z" fill="#27292E"/>
<path d="M37.1131 45.5174L29.3506 39.304C42.3367 33.3378 49.3579 47.8909 46.8363 53.1225L43.3169 47.6329L41.8839 49.3907L38.5259 43.6587L37.1131 45.5174Z" fill="#27292E"/>
<path d="M16.6515 28.3757L24.2746 34.7591C27.5711 20.8596 11.9129 16.8442 7.2772 20.3449L13.3551 22.7129L11.9129 24.4632L18.1967 26.6254L16.6515 28.3757Z" fill="#27292E"/>
<path d="M12.3438 36.5082L22.2882 36.6135C16.0193 23.7762 1.36378 30.5942 0 36.2389L6.20219 34.2184L6.19737 36.4858L12.4282 34.1755L12.3438 36.5082Z" fill="#27292E"/>
<path d="M14.0516 45.5174L21.814 39.304C8.828 33.3378 1.8068 47.8909 4.32836 53.1225L7.84772 47.6329L9.28082 49.3907L12.6387 43.6587L14.0516 45.5174Z" fill="#27292E"/>
<path d="M28.2293 38.9186C28.2293 37.4402 27.0302 36.2417 25.5509 36.2417C24.0717 36.2417 22.8726 37.4402 22.8726 38.9186V65.6879H28.2293V38.9186Z" fill="#27292E"/>
<path d="M88.7109 28.336V5.79599H92.8969V14.812H103.04V5.79599H107.226V28.336H103.04V18.998H92.8969V28.336H88.7109Z" fill="#27292E"/>
<path d="M109.628 28.336L117.678 5.79599H123.796L131.846 28.336H127.177L125.471 23.506H116.004L114.297 28.336H109.628ZM117.356 19.642H124.118L121.059 10.626H120.415L117.356 19.642Z" fill="#27292E"/>
<path d="M134.275 28.336V5.79599H144.74C146.672 5.79599 148.229 6.37559 149.409 7.53479C150.59 8.69399 151.18 10.2074 151.18 12.075C151.18 13.4703 150.804 14.6939 150.053 15.7458C149.667 16.2395 149.291 16.6259 148.926 16.905V17.066C149.398 17.3451 149.828 17.7315 150.214 18.2252C151.073 19.2985 151.502 20.5758 151.502 22.057C151.502 23.9246 150.912 25.438 149.731 26.5972C148.55 27.7564 146.994 28.336 145.062 28.336H134.275ZM138.461 15.134H144.257C145.073 15.134 145.728 14.8871 146.221 14.3934C146.737 13.8782 146.994 13.2127 146.994 12.397C146.994 11.4954 146.747 10.787 146.254 10.2718C145.76 9.75659 145.094 9.49899 144.257 9.49899H138.461V15.134ZM138.461 24.633H144.579C145.309 24.633 145.942 24.3539 146.479 23.7958C147.037 23.2377 147.316 22.5507 147.316 21.735C147.316 20.9193 147.037 20.2323 146.479 19.6742C145.942 19.1161 145.309 18.837 144.579 18.837H138.461V24.633Z" fill="#27292E"/>
<path d="M155.532 28.336V5.79599H159.718V28.336H155.532Z" fill="#27292E"/>
<path d="M164.557 28.336V5.79599H175.022C176.954 5.79599 178.51 6.37559 179.691 7.53479C180.872 8.69399 181.462 10.2074 181.462 12.075C181.462 13.4703 181.086 14.6939 180.335 15.7458C179.949 16.2395 179.573 16.6259 179.208 16.905V17.066C179.68 17.3451 180.11 17.7315 180.496 18.2252C181.355 19.2985 181.784 20.5758 181.784 22.057C181.784 23.9246 181.194 25.438 180.013 26.5972C178.832 27.7564 177.276 28.336 175.344 28.336H164.557ZM168.743 15.134H174.539C175.355 15.134 176.009 14.8871 176.503 14.3934C177.018 13.8782 177.276 13.2127 177.276 12.397C177.276 11.4954 177.029 10.787 176.535 10.2718C176.042 9.75659 175.376 9.49899 174.539 9.49899H168.743V15.134ZM168.743 24.633H174.861C175.591 24.633 176.224 24.3539 176.761 23.7958C177.319 23.2377 177.598 22.5507 177.598 21.735C177.598 20.9193 177.319 20.2323 176.761 19.6742C176.224 19.1161 175.591 18.837 174.861 18.837H168.743V24.633Z" fill="#27292E"/>
<path d="M185.814 28.336V5.79599H190V28.336H185.814Z" fill="#27292E"/>
<path d="M93.7019 60.536V42.021H86.9399V37.996H104.65V42.021H97.8879V60.536H93.7019Z" fill="#27292E"/>
<path d="M112.195 54.7722C113.461 56.146 115.082 56.833 117.057 56.833C119.032 56.833 120.653 56.146 121.919 54.7722C123.186 53.3768 123.819 51.5414 123.819 49.266C123.819 46.9905 123.186 45.1658 121.919 43.792C120.653 42.3966 119.032 41.699 117.057 41.699C115.082 41.699 113.461 42.3966 112.195 43.792C110.928 45.1658 110.295 46.9905 110.295 49.266C110.295 51.5414 110.928 53.3768 112.195 54.7722ZM109.265 40.9584C111.368 38.7688 113.966 37.674 117.057 37.674C120.148 37.674 122.746 38.7688 124.849 40.9584C126.953 43.148 128.005 45.9172 128.005 49.266C128.005 52.6148 126.953 55.384 124.849 57.5736C122.746 59.7632 120.148 60.858 117.057 60.858C113.966 60.858 111.368 59.7632 109.265 57.5736C107.161 55.384 106.109 52.6148 106.109 49.266C106.109 45.9172 107.161 43.148 109.265 40.9584Z" fill="#27292E"/>
<path d="M131.693 51.359V37.996H135.879V51.359C135.879 52.9475 136.373 54.257 137.36 55.2874C138.348 56.3178 139.571 56.833 141.031 56.833C142.491 56.833 143.714 56.3178 144.702 55.2874C145.689 54.257 146.183 52.9475 146.183 51.359V37.996H150.369V51.359C150.369 54.257 149.521 56.5646 147.825 58.282C146.129 59.9993 143.864 60.858 141.031 60.858C138.197 60.858 135.933 59.9993 134.237 58.282C132.541 56.5646 131.693 54.257 131.693 51.359Z" fill="#27292E"/>
<path d="M155.029 60.536V37.996H165.333C167.351 37.996 169.036 38.7044 170.388 40.1212C171.741 41.5165 172.417 43.3304 172.417 45.563C172.417 47.6667 171.773 49.384 170.485 50.715C169.219 52.0244 167.662 52.7221 165.816 52.808L173.061 60.536H167.748L160.503 52.808H159.215V60.536H155.029ZM159.215 48.944H165.172C165.988 48.944 166.696 48.622 167.297 47.978C167.92 47.3125 168.231 46.5075 168.231 45.563C168.231 44.5326 167.931 43.6846 167.329 43.0192C166.728 42.3537 166.009 42.021 165.172 42.021H159.215V48.944Z" fill="#27292E"/>
</svg>
