<svg width="21" height="24" viewBox="0 0 21 24" fill="none" xmlns="http://www.w3.org/2000/svg">
<path d="M18.2795 21.4022L18.273 21.3542L18.273 21.3542C18.0601 19.7926 17.4693 18.3893 16.5509 17.2552C15.9254 16.4829 14.8978 15.6359 14.0937 15.2274L14.0936 15.2274L13.8466 15.1018L13.6261 15.1923L13.6261 15.1923C13.1581 15.3841 12.259 15.6153 11.6445 15.7033C11.1889 15.7686 10.8786 15.78 10.1614 15.7602C9.12036 15.7315 8.47914 15.6203 7.58482 15.3113M18.2795 21.4022L7.58482 15.3113M18.2795 21.4022H10.4286H2.57759L2.58415 21.3542L2.58415 21.3542C2.79702 19.7926 3.38783 18.3893 4.30628 17.2552C4.68835 16.7834 5.45089 16.0686 5.90785 15.7529L5.90786 15.7528C6.17779 15.5663 6.46028 15.3937 6.68441 15.2731C6.79689 15.2125 6.89171 15.1667 6.96138 15.1387C6.99178 15.1264 7.01431 15.1188 7.02963 15.1147M18.2795 21.4022L7.02963 15.1147M7.58482 15.3113C7.34834 15.2297 7.11807 15.1483 7.02963 15.1147M7.58482 15.3113C7.58482 15.3113 7.58483 15.3113 7.58484 15.3113L7.02963 15.1147M8.21079 1.27862L8.21078 1.27863C6.90903 1.80458 5.76952 2.86164 5.12228 4.14133C4.69803 4.98012 4.49341 5.86219 4.49341 6.84487C4.49341 8.50842 5.10087 9.95879 6.28505 11.1219C6.78698 11.6149 7.18164 11.9057 7.74747 12.197C8.57588 12.6235 9.46685 12.8352 10.4286 12.8352C11.3903 12.8352 12.2813 12.6235 13.1097 12.197C13.6755 11.9057 14.0702 11.6149 14.5721 11.1219C15.7563 9.95879 16.3637 8.50842 16.3637 6.84487C16.3637 5.16788 15.7513 3.71883 14.5455 2.54121C13.2793 1.30456 11.7305 0.742206 9.93984 0.867016C9.40775 0.904105 8.74773 1.06172 8.21079 1.27862ZM11.5674 2.71141L11.6099 2.56755L11.5674 2.71142C13.0203 3.14004 14.1063 4.24128 14.5305 5.71908L14.5305 5.7191C14.6152 6.01404 14.6288 6.14527 14.6288 6.84487C14.6288 7.54447 14.6152 7.67569 14.5305 7.97064L14.5305 7.97065C14.1035 9.45803 13.0162 10.5546 11.5433 10.985L11.5433 10.985C11.2515 11.0703 11.1219 11.0841 10.4286 11.0841C9.73525 11.0841 9.60566 11.0703 9.31385 10.985L9.31384 10.985C7.84094 10.5546 6.75364 9.45803 6.32667 7.97065L6.32666 7.97063C6.24197 7.67569 6.22831 7.54447 6.22831 6.84487C6.22831 6.14527 6.24197 6.01404 6.32666 5.7191L6.32667 5.71908C6.77903 4.14316 7.97885 3.00164 9.55047 2.64774C9.75824 2.60097 10.1541 2.58394 10.5633 2.59686C10.9726 2.6098 11.3653 2.65177 11.5674 2.71141ZM0.919554 20.9852L0.919551 20.9852C0.881592 21.2549 0.850498 21.7062 0.850032 21.9933C0.849673 22.2171 0.851916 22.3614 0.868146 22.4673C0.88635 22.586 0.922366 22.6588 0.977095 22.7408L0.977128 22.7408C1.04608 22.844 1.18041 22.9713 1.28727 23.0346L1.28729 23.0346L1.2873 23.0346C1.31065 23.0485 1.3418 23.0669 1.39398 23.0813C1.44036 23.0941 1.49943 23.1028 1.58326 23.1097C1.75137 23.1234 2.05038 23.1323 2.61621 23.1382C3.75083 23.15 5.97837 23.15 10.4286 23.15C14.8788 23.15 17.1063 23.15 18.2409 23.1382C18.8068 23.1323 19.1058 23.1234 19.2739 23.1097C19.3577 23.1028 19.4168 23.0941 19.4632 23.0813C19.5154 23.0669 19.5465 23.0485 19.5699 23.0346L19.5699 23.0346C19.6767 22.9713 19.8111 22.844 19.88 22.7409L19.88 22.7408C19.9348 22.6588 19.9708 22.586 19.989 22.4673C20.0052 22.3614 20.0075 22.2171 20.0071 21.9933C20.0046 20.4959 19.5143 18.7756 18.6917 17.3654C17.7311 15.7186 16.1863 14.3049 14.4747 13.507C14.2382 13.3968 14.055 13.3284 13.8711 13.321C13.6835 13.3135 13.5136 13.3699 13.3049 13.4644C11.6056 14.2336 9.39226 14.2446 7.61891 13.4895C7.34977 13.3749 7.15667 13.3024 6.93597 13.3232C6.72421 13.3431 6.50155 13.4481 6.16444 13.6185C3.29208 15.0702 1.37296 17.7666 0.919554 20.9852Z" fill="white" stroke="white" stroke-width="0.3"/>
</svg>
