<svg width="22" height="20" viewBox="0 0 22 20" fill="none" xmlns="http://www.w3.org/2000/svg">
<path d="M9.70735 1.1079C10.1856 -0.0419095 11.8144 -0.0419095 12.2926 1.1079L14.1102 5.47771C14.3118 5.96243 14.7676 6.29363 15.2909 6.33558L20.0085 6.71379C21.2498 6.81331 21.7531 8.36242 20.8074 9.17255L17.2131 12.2514C16.8144 12.593 16.6403 13.1289 16.7621 13.6395L17.8602 18.2431C18.1491 19.4544 16.8314 20.4118 15.7687 19.7627L11.7298 17.2957C11.2817 17.0221 10.7183 17.0221 10.2702 17.2957L6.23134 19.7627C5.1686 20.4118 3.85085 19.4544 4.13979 18.2431L5.23791 13.6395C5.35972 13.1289 5.1856 12.593 4.7869 12.2514L1.1926 9.17255C0.246851 8.36242 0.750188 6.81331 1.9915 6.71379L6.70908 6.33558C7.23238 6.29363 7.68824 5.96243 7.88985 5.47771L9.70735 1.1079Z" fill="#F3AC41"/>
</svg>
