<svg width="49" height="50" viewBox="0 0 49 50" fill="none" xmlns="http://www.w3.org/2000/svg">
<path d="M23.9458 0H24.9406C30.3724 0 35.6148 2.12283 40.6676 6.3685C46.0363 11.9592 48.7206 17.8253 48.7206 23.9669V26.3491C48.7206 29.9141 47.3785 34.1031 44.6941 38.9159C41.3782 43.7773 36.8622 47.1317 31.1462 48.9791C28.4934 49.6597 26.2828 50 24.5143 50H24.3722C17.7561 50 11.8426 47.3424 6.63188 42.0272C2.21063 36.8417 0 31.17 0 25.0122C0 18.433 2.50275 12.4129 7.50824 6.95187C12.719 2.31729 18.1982 0 23.9458 0Z" fill="#0D76D8"/>
<path fill-rule="evenodd" clip-rule="evenodd" d="M21.7102 17.6705C8.63117 22.8477 7.37417 23.357 7.19963 23.5497C6.88637 23.8956 6.94947 24.4302 7.33495 24.6959C7.43263 24.7632 9.07299 25.4144 10.9801 26.1429L14.4476 27.4674L15.7971 31.9233C16.5393 34.374 17.1912 36.4544 17.2456 36.5463C17.3802 36.7733 17.7305 36.9372 17.9892 36.8942C18.2344 36.8534 18.1397 36.9266 20.4251 35.01C21.4392 34.1595 22.3747 33.4127 22.5041 33.3505C22.7832 33.2162 23.1681 33.2025 23.4361 33.3174C23.5423 33.3629 25.1877 34.5613 27.0925 35.9805C28.9972 37.3997 30.6362 38.6111 30.7345 38.6727C31.0003 38.839 31.3641 38.8198 31.5866 38.6278C31.6868 38.5413 31.7942 38.4219 31.8251 38.3626C31.9152 38.19 37 13.0169 37 12.7438C37 12.3356 36.6447 11.9952 36.2237 12.0001C36.1115 12.0013 29.9942 14.3914 21.7102 17.6705ZM30.4824 17.5031C30.6693 17.6575 30.6557 17.7871 30.4276 18.0285C30.3067 18.1564 27.932 20.4256 25.1504 23.0712C19.5415 28.4059 19.2427 28.6963 19.0076 29.0416C18.7461 29.4256 18.6726 29.74 18.4495 31.4267C18.2963 32.5851 18.2132 33.045 18.1427 33.1249C18.0163 33.2683 17.7563 33.265 17.6271 33.1185C17.4744 32.9453 16.0066 27.6098 16.0077 27.2316C16.0087 26.8647 16.16 26.5115 16.4251 26.2568C16.6469 26.0437 30.2366 17.4277 30.3509 17.4277C30.3731 17.4277 30.4322 17.4616 30.4824 17.5031Z" fill="white"/>
</svg>
