<svg width="49" height="31" viewBox="0 0 49 31" fill="none" xmlns="http://www.w3.org/2000/svg">
<path d="M20.4957 0.306591L20.4957 0.306594C14.9606 1.38162 10.974 2.95519 7.82625 5.29939C7.33113 5.66816 6.39348 6.55362 5.46312 7.50045C4.53344 8.44658 3.62001 9.44481 3.17261 10.036L3.17259 10.036C2.95613 10.322 2.2065 11.54 1.50585 12.7459C0.671349 14.1826 0.246866 15.036 0.151263 15.7745C0.0568643 16.5038 0.282263 17.1329 0.798948 18.1286C1.62312 19.7166 3.20218 21.9778 4.15451 22.9373C5.03399 23.8233 6.363 24.8592 7.58673 25.6738C8.1983 26.0809 8.7815 26.4315 9.26711 26.6797C9.50998 26.8039 9.72692 26.9017 9.90979 26.9683C10.0949 27.0356 10.2368 27.0678 10.3326 27.0678C10.5102 27.0678 10.6879 27.1916 10.6879 27.38C10.6879 27.4803 10.6096 27.5396 10.5448 27.5716C10.4752 27.606 10.3822 27.6295 10.2781 27.6459C10.0679 27.6789 9.78328 27.6869 9.47468 27.6735C8.85873 27.6469 8.12176 27.5343 7.65414 27.3477C5.0612 26.3129 3.15523 25.8227 1.90336 25.8628C1.27887 25.8828 0.831106 26.0344 0.539813 26.3017C0.250661 26.567 0.1 26.9608 0.1 27.5012C0.1 27.8163 0.135815 28.0657 0.219852 28.2676C0.302797 28.4669 0.434939 28.6252 0.638165 28.7554C1.05368 29.0215 1.76197 29.1686 2.93912 29.2782C3.6232 29.3418 4.57708 29.551 5.06465 29.7463L5.02745 29.8392L5.06465 29.7463C7.97706 30.9133 11.0579 31.2166 13.1476 30.5571L13.1777 30.6525L13.1477 30.5571C14.1886 30.2288 15.455 29.4674 16.2109 28.7161L16.2814 28.787L16.2109 28.7161C16.6281 28.3015 17.2268 27.9443 17.8768 27.6908C18.5273 27.437 19.2362 27.2843 19.8773 27.2843C21.2959 27.2843 22.4212 27.7975 24.3663 29.2992C25.2 29.9428 25.9501 30.359 26.7738 30.5982C27.5981 30.8375 28.5026 30.9015 29.648 30.8318C30.6937 30.7681 31.4401 30.6416 32.1443 30.3535C32.8493 30.0652 33.519 29.6122 34.407 28.8844C35.2727 28.1747 35.7526 27.7935 36.2597 27.5959C36.7695 27.3972 37.301 27.3862 38.2563 27.3862H40.0542H40.0872L40.1138 27.4058L42.0178 28.8164C44.0821 30.3458 45.4226 30.8883 47.0826 30.8883C47.7253 30.8883 48.1613 30.7696 48.4368 30.534C48.7085 30.3017 48.8441 29.9377 48.8441 29.3964C48.8441 28.8018 48.7054 28.4275 48.3523 28.1664C47.9871 27.8963 47.3779 27.7346 46.3972 27.6205C46.164 27.5934 45.8184 27.4585 45.4378 27.272C45.0533 27.0837 44.621 26.8365 44.2098 26.5747C43.7987 26.313 43.4067 26.0353 43.1033 25.7856C42.9517 25.6608 42.8206 25.5417 42.7201 25.434C42.6218 25.3288 42.5441 25.2258 42.5107 25.1332M20.4957 0.306591L42.6047 25.0992M20.4957 0.306591C21.5913 0.0936275 22.0777 0.0818721 22.427 0.224202L22.4647 0.131595L20.4957 0.306591ZM42.5107 25.1332L42.6047 25.0992M42.5107 25.1332C42.5107 25.1332 42.5107 25.1332 42.5107 25.1332L42.6047 25.0992M42.5107 25.1332C42.4931 25.0846 42.5009 25.0318 42.5113 24.991C42.5226 24.9463 42.5424 24.8961 42.5676 24.8428C42.6184 24.7359 42.6971 24.6042 42.7962 24.4573C42.9949 24.1629 43.2821 23.7981 43.6106 23.4317C44.2598 22.7077 45.0541 21.7359 45.3753 21.2739M42.6047 25.0992C42.5484 24.9434 43.0326 24.226 43.6851 23.4984C44.3353 22.7732 45.1328 21.7979 45.4575 21.331M45.3753 21.2739C45.3753 21.2739 45.3753 21.2739 45.3753 21.2739L45.4575 21.331M45.3753 21.2739C45.6992 20.8077 46.0719 20.3036 46.2032 20.1552L46.2033 20.1552C46.3135 20.0309 46.4637 19.7797 46.6304 19.4496C46.7956 19.1226 46.9728 18.727 47.138 18.3212C47.3032 17.9155 47.456 17.5007 47.5725 17.1356C47.6897 16.7684 47.7682 16.4578 47.7884 16.2575L47.8879 16.2676M45.3753 21.2739L45.4575 21.331M45.4575 21.331L47.8879 16.2676M47.8879 16.2676C47.9972 15.1838 47.6683 14.6649 46.7368 14.4501C46.3576 14.3626 46.0642 14.2035 46.0845 14.0967L47.8879 16.2676ZM47.8879 16.2676L47.7884 16.2575C47.8421 15.7243 47.7855 15.3506 47.6182 15.0865C47.4526 14.8252 47.1663 14.6517 46.7143 14.5475C46.5183 14.5023 46.3412 14.4379 46.2132 14.3685C46.1498 14.3342 46.0934 14.2959 46.053 14.2545C46.0163 14.2169 45.9717 14.1547 45.9863 14.0779L45.9863 14.0779C45.9947 14.0339 46.0346 13.8974 46.0943 13.7015C46.1551 13.5018 46.2389 13.2327 46.3385 12.9169C46.5376 12.2853 46.7997 11.4662 47.066 10.6415C47.5977 8.99533 48.1492 7.318 48.2482 7.07286L48.2482 7.07283C48.5125 6.41945 48.7039 5.80172 48.8085 5.29146C48.8608 5.03628 48.891 4.80974 48.8983 4.62012C48.9056 4.42884 48.8892 4.28245 48.8537 4.18336L48.9479 4.14967C49.1147 4.61577 48.8729 5.79502 48.341 7.11032L47.8879 16.2676ZM22.7057 5.69696L22.7857 5.63696C23.6471 6.78565 24.5778 8.04725 24.8536 8.44036C25.1269 8.82977 25.6067 9.46398 25.9189 9.84784L25.9189 9.84788L26.4588 10.5124H32.5352H38.617L40.652 8.42021L42.7164 6.29773L42.7459 6.26745H42.7881H43.9684C44.2939 6.26745 44.5904 6.27341 44.806 6.2831C44.9135 6.28793 45.0025 6.29376 45.0653 6.30042C45.0962 6.3037 45.1238 6.30748 45.1451 6.31215C45.1549 6.3143 45.1687 6.31776 45.1821 6.32367C45.1883 6.32645 45.2006 6.33235 45.2127 6.34321C45.2244 6.35365 45.2482 6.38003 45.2476 6.42188L45.2476 6.42224C45.2475 6.4286 45.2467 6.43427 45.2462 6.43786C45.2458 6.4399 45.2456 6.44127 45.2455 6.4417L45.2436 6.45021C45.2424 6.45503 45.2409 6.46064 45.2393 6.46652C45.236 6.47846 45.2313 6.49459 45.2254 6.51426C45.2135 6.55374 45.1963 6.60955 45.1744 6.6791C45.1308 6.81832 45.0686 7.01382 44.9939 7.24656C44.8446 7.7121 44.6454 8.32728 44.4458 8.94059C44.2461 9.55389 44.0459 10.1655 43.8945 10.6238C43.8188 10.8529 43.7552 11.0439 43.7099 11.1777C43.6873 11.2445 43.6692 11.2974 43.6563 11.3338C43.65 11.3519 43.6446 11.3665 43.6406 11.377C43.6387 11.382 43.6366 11.3874 43.6345 11.3922C43.6337 11.3939 43.6322 11.3974 43.63 11.4014C43.6287 11.4051 43.6269 11.4104 43.6245 11.4175C43.6181 11.4366 43.6087 11.4653 43.5968 11.5029C43.5729 11.5779 43.5389 11.6867 43.4974 11.8212C43.4144 12.0902 43.3013 12.4614 43.1783 12.8699L42.7308 14.3556L42.7095 14.4266L42.6354 14.4268L23.5152 14.4809C17.541 14.4978 12.7606 14.4925 9.47363 14.4672C7.83024 14.4546 6.55965 14.4369 5.69966 14.4146C5.26987 14.4034 4.94161 14.391 4.72034 14.3775C4.61009 14.3707 4.52439 14.3635 4.46537 14.3557C4.43652 14.3519 4.41026 14.3475 4.38964 14.3419C4.38012 14.3393 4.3658 14.3349 4.35182 14.3272C4.34489 14.3233 4.33303 14.316 4.32185 14.3035C4.3101 14.2904 4.29498 14.2667 4.29498 14.2338C4.29498 14.1875 4.31247 14.1252 4.33341 14.0639C4.35592 13.9979 4.38788 13.918 4.42653 13.8299C4.50391 13.6534 4.61017 13.4392 4.72688 13.2291L5.1462 12.4741L5.17477 12.4227H5.23362H7.99287H10.7037L11.1909 11.8075C11.6947 11.1714 11.7664 10.5325 11.5202 10.037C11.2725 9.5384 10.6881 9.15466 9.81683 9.06571C9.81682 9.06571 9.81682 9.0657 9.81681 9.0657L9.82697 8.96622L22.7057 5.69696ZM22.7057 5.69696L22.7856 5.63696C22.3542 5.0618 21.9469 4.54054 21.6379 4.16398C21.4836 3.97588 21.3531 3.82288 21.2559 3.71707C21.2076 3.66444 21.166 3.62176 21.1331 3.59195C21.1169 3.57731 21.1004 3.56352 21.0846 3.553C21.0768 3.5478 21.0665 3.54159 21.0546 3.53666C21.0449 3.53266 21.0219 3.5242 20.9932 3.52836C20.4912 3.60113 19.6274 3.76859 18.8426 3.93628C18.4499 4.0202 18.076 4.10438 17.7761 4.17708C17.4791 4.24904 17.2472 4.31147 17.1438 4.35204L17.1438 4.35206C16.8738 4.45825 16.1136 4.70209 15.4544 4.8935L15.4544 4.89351M22.7057 5.69696L15.4544 4.89351M43.6044 11.4326C43.6086 11.4289 43.6138 11.4237 43.6172 11.42M43.6044 11.4326C43.604 11.433 43.6035 11.4334 43.6031 11.4337L43.6172 11.42M43.6044 11.4326C43.6101 11.428 43.6139 11.4237 43.6161 11.4213C43.6165 11.4208 43.6168 11.4204 43.6172 11.42M43.6044 11.4326L43.6172 11.42M15.4544 4.89351C14.7948 5.08521 13.3636 5.73203 12.1037 6.36081C11.4723 6.67594 10.8804 6.98827 10.4457 7.23927C10.2287 7.36458 10.0489 7.47573 9.92249 7.565C9.85964 7.60938 9.80717 7.65031 9.76941 7.68637C9.75067 7.70427 9.73291 7.72345 9.71915 7.74341C9.70779 7.75987 9.69068 7.78873 9.68895 7.82516L15.4544 4.89351ZM38.716 23.7539C38.7822 23.739 38.8571 23.7027 38.9356 23.655C39.0156 23.6065 39.106 23.5419 39.2045 23.4646C39.4016 23.3098 39.6365 23.0994 39.8936 22.8517C40.4081 22.3559 41.0169 21.7054 41.5997 21.0382C42.1826 20.3711 42.7409 19.6855 43.1542 19.1193C43.3607 18.8363 43.5321 18.5815 43.6525 18.3728C43.7126 18.2685 43.761 18.1739 43.7946 18.0919C43.8273 18.0122 43.85 17.9351 43.85 17.8688C43.85 17.8084 43.8055 17.7764 43.7894 17.7664C43.7687 17.7534 43.7446 17.7446 43.7227 17.7382C43.6774 17.7249 43.6141 17.7136 43.5349 17.7034C43.3751 17.6827 43.1326 17.6645 42.7979 17.6481C42.1277 17.6153 41.0783 17.5898 39.5597 17.5704C36.5219 17.5314 31.6019 17.5166 24.0725 17.5166C15.6645 17.5166 10.7442 17.5275 7.92599 17.5704C6.51741 17.5919 5.63154 17.6214 5.09722 17.6618C4.83098 17.6819 4.64713 17.7051 4.52819 17.7326C4.46963 17.7462 4.41929 17.7624 4.38138 17.7842C4.34579 17.8047 4.29498 17.8461 4.29498 17.9165C4.29498 18.0041 4.33492 18.1129 4.39114 18.2271C4.44942 18.3455 4.53292 18.4847 4.63537 18.6379C4.84048 18.9446 5.12649 19.3152 5.45249 19.7016C6.10405 20.4741 6.92234 21.3185 7.58698 21.8531L7.64966 21.7752L7.58699 21.8531C8.76846 22.8033 10.225 23.6081 11.643 24.149C13.0589 24.6891 14.4476 24.9704 15.4914 24.8621C16.0501 24.8041 17.2256 24.5437 18.1066 24.2842L18.1066 24.2842C18.8279 24.0716 19.2493 23.9634 19.6348 23.9345C20.0181 23.9058 20.3708 23.9552 20.9559 24.0695L20.975 23.9713L20.9559 24.0695C22.5709 24.3847 23.7197 24.9196 25.0184 25.9613C25.9073 26.6744 26.5249 27.1094 27.1156 27.3643C27.7102 27.6209 28.2714 27.6923 29.042 27.6923C30.5039 27.6923 31.742 27.2264 32.6545 26.3232C33.5775 25.4096 35.2645 24.5301 36.7378 24.1988C37.5849 24.0084 38.4751 23.8083 38.716 23.7539ZM38.716 23.7539L38.694 23.6564L38.716 23.7539C38.716 23.7539 38.716 23.7539 38.716 23.7539ZM43.541 11.4553C43.5617 11.4531 43.5917 11.4413 43.6024 11.4342C43.601 11.4353 43.5994 11.4365 43.5978 11.4376C43.5894 11.4434 43.5695 11.4553 43.541 11.4553Z" fill="#5F626B" stroke="white" stroke-width="0.2"/>
</svg>
