<svg width="50" height="50" viewBox="0 0 50 50" fill="none" xmlns="http://www.w3.org/2000/svg">
<path d="M23.2058 0.00012207H26.7665C30.5774 0.00012207 34.9131 1.58009 39.7737 4.74003C43.4392 7.60829 46.0956 10.9222 47.7427 14.6817C49.2283 18.263 49.9711 21.2852 49.9711 23.7483V25.8144C49.9711 31.3565 47.7023 36.8499 43.1647 42.2947C37.9005 47.4317 31.7885 50.0001 24.8287 50.0001C16.1411 50.0001 9.04408 45.9408 3.53763 37.8222C1.18002 33.4469 0.0012207 29.1445 0.0012207 24.915C0.0012207 17.947 2.85941 11.6676 8.57579 6.07693C13.9046 2.02573 18.7813 0.00012207 23.2058 0.00012207ZM11.6762 21.6579V29.3876C11.6762 33.6008 13.0084 36.4124 15.6728 37.8222C16.8678 38.5028 20.711 38.754 27.2025 38.5757C32.176 38.5757 35.0342 38.0329 35.777 36.9471C37.4564 35.6021 38.2961 33.374 38.2961 30.2626V20.321C38.2961 16.3994 36.9155 13.8309 34.1542 12.6156L32.3133 12.0079L30.4482 11.8621H19.6694C15.8262 11.8621 13.2587 13.7418 11.9669 17.5013C11.7731 18.6519 11.6762 20.0374 11.6762 21.6579ZM20.1054 14.2442H30.4482C34.1945 14.2442 36.0677 16.2212 36.0677 20.1751V30.7002C35.5671 34.3625 34.0411 36.1936 31.4898 36.1936H27.2025C25.2001 36.1936 23.0847 36.2422 20.8563 36.3395C17.1423 36.3395 14.9704 35.1565 14.3406 32.7906C14.1468 31.478 14.05 29.501 14.05 26.8596V23.5781C14.05 18.6357 14.4456 16.1644 15.2368 16.1644C16.0281 14.8843 17.6509 14.2442 20.1054 14.2442ZM30.5935 18.2549C31.0295 19.2434 31.5786 19.7376 32.2406 19.7376C32.9027 19.7376 33.4437 19.2434 33.8635 18.2549C33.6374 17.0557 33.04 16.4561 32.0711 16.4561C31.0861 16.764 30.5935 17.3636 30.5935 18.2549ZM18.1919 25.3769C18.1919 28.5692 20.0166 30.7893 23.6661 32.0371H26.6211C30.1575 30.7569 31.9257 28.4882 31.9257 25.231V24.915C31.9257 23.0677 30.9892 21.3419 29.116 19.7376C27.8403 18.8463 26.5162 18.4007 25.1436 18.4007H24.9983C21.9463 18.4007 19.8228 19.9807 18.6279 23.1406C18.4664 23.3513 18.3211 24.0967 18.1919 25.3769ZM24.9983 20.7585H25.1436C27.2751 20.7585 28.7042 21.9009 29.4309 24.1858C29.5278 24.3155 29.5762 24.6639 29.5762 25.231C29.1079 28.2938 27.6304 29.8251 25.1436 29.8251C23.1736 29.8251 21.7445 28.8366 20.8563 26.8596C20.7271 26.6976 20.6222 26.2033 20.5414 25.3769C20.8967 22.298 22.3823 20.7585 24.9983 20.7585Z" fill="#0D76D8"/>
</svg>
