<svg width="28" height="26" viewBox="0 0 28 26" fill="none" xmlns="http://www.w3.org/2000/svg">
<path fill-rule="evenodd" clip-rule="evenodd" d="M6.55027 1.04625C4.06737 1.24902 1.88559 3.06183 1.24256 5.45631C1.03598 6.22565 0.99957 6.97357 1 10.442C1.00038 13.9478 1.0356 14.6748 1.24164 15.4302C1.68459 17.0546 2.85981 18.4728 4.40214 19.2442C4.80408 19.4452 5.58494 19.7065 5.94273 19.7597L6.19357 19.797L6.20982 22.0869C6.22537 24.2847 6.23052 24.3844 6.3373 24.5646C6.56609 24.9506 7.06334 25.111 7.43418 24.9184C7.51463 24.8766 9.07782 23.7288 10.9079 22.3677L14.2354 19.893L17.4904 19.8921C19.2808 19.8916 21.026 19.8679 21.3686 19.8392C22.8679 19.7137 24.1352 19.1351 25.1904 18.0942C26.2328 17.0661 26.8216 15.788 26.9476 14.2802C27.0175 13.4448 27.0175 7.43919 26.9476 6.60385C26.8208 5.0859 26.2491 3.84562 25.1883 2.78673C24.1605 1.76077 22.8651 1.17008 21.3686 1.04486C20.6435 0.984231 7.29489 0.985413 6.55027 1.04625ZM21.9966 2.81579C22.2323 2.87432 22.6567 3.03638 22.9398 3.17589C23.3806 3.39315 23.5325 3.50694 23.9987 3.96891C24.4648 4.43093 24.5796 4.58151 24.7988 5.01845C25.285 5.9875 25.2694 5.80852 25.2694 10.442C25.2694 15.0764 25.285 14.8978 24.7981 15.8656C24.5828 16.2936 24.4583 16.4589 24.0251 16.892C23.4519 17.4652 22.9977 17.7507 22.2626 18.0001L21.8291 18.1471L17.82 18.1743C13.8567 18.2012 13.8087 18.2028 13.6165 18.3154C13.5096 18.378 12.1994 19.3385 10.705 20.4499C9.21061 21.5612 7.97547 22.4705 7.96024 22.4705C7.94508 22.4705 7.93202 21.7154 7.93131 20.7924C7.93061 19.8695 7.90786 19.0196 7.88077 18.9037C7.7658 18.4125 7.49816 18.2429 6.73253 18.1763C5.59404 18.0771 4.7836 17.6996 3.97592 16.892C3.54266 16.4589 3.41816 16.2936 3.20286 15.8656C2.71602 14.8978 2.73157 15.0764 2.73157 10.442C2.73157 5.81217 2.71575 5.99539 3.20015 5.01845C3.4186 4.57791 3.52771 4.43437 3.99981 3.96644C4.47181 3.49867 4.61689 3.39031 5.0612 3.17374C6.07665 2.6788 5.36292 2.71575 13.9783 2.71236C21.3692 2.70946 21.5792 2.7122 21.9966 2.81579Z" fill="white" stroke="white" stroke-width="0.5"/>
</svg>
