<svg width="23" height="23" viewBox="0 0 23 23" fill="none" xmlns="http://www.w3.org/2000/svg">
<path d="M12.8422 2.18949L12.8025 2.3855C12.6831 2.3613 12.5624 2.3305 12.4628 2.2999C12.4132 2.28463 12.3667 2.26877 12.3272 2.25309C12.293 2.23949 12.2472 2.21961 12.211 2.19291L12.8422 2.18949ZM12.8422 2.18949L12.8025 2.3855C14.7743 2.78523 16.566 3.76573 17.9763 5.21731L18.1172 5.08043L17.9763 5.21731C19.3561 6.63748 20.1638 8.16564 20.6213 10.2304L20.8166 10.1871M12.8422 2.18949L20.8166 10.1871M20.8166 10.1871L20.6213 10.2304C20.6473 10.3479 20.6807 10.4667 20.7142 10.5653C20.7309 10.6145 20.7484 10.6608 20.7658 10.7004C20.7813 10.7358 20.803 10.7805 20.8311 10.8161M20.8166 10.1871L13.1829 1.08073L13.2246 0.885125C14.5662 1.17121 16.0294 1.78465 17.1457 2.52962C19.7382 4.25977 21.5177 6.87923 22.1297 9.87084C22.1812 10.1226 22.2131 10.3101 22.1946 10.4645C22.1732 10.6425 22.0887 10.7589 21.9815 10.8758C21.6602 11.2262 21.1224 11.1862 20.8311 10.8161M20.8311 10.8161L20.9883 10.6924M20.8311 10.8161C20.8311 10.8162 20.8311 10.8162 20.8312 10.8162L20.9883 10.6924M20.9883 10.6924C21.2082 10.9719 21.6014 10.9943 21.834 10.7406L20.9883 10.6924ZM12.4592 6.17006L12.4592 6.17006C12.2022 6.12167 11.9826 6.00458 11.8418 5.8288C11.6975 5.64853 11.6469 5.41813 11.7175 5.18274C11.7175 5.18273 11.7175 5.18272 11.7175 5.18271L11.9091 5.24016L12.4592 6.17006ZM12.4592 6.17006C14.0584 6.47118 15.5306 7.5723 16.2854 9.03396M12.4592 6.17006L16.2854 9.03396M16.2854 9.03396C16.5448 9.53625 16.668 9.87154 16.7908 10.4085M16.2854 9.03396L16.7908 10.4085M16.7908 10.4085C16.8313 10.5855 16.8633 10.7117 16.9069 10.8114M16.7908 10.4085L16.9069 10.8114M16.9069 10.8114C16.9553 10.9222 17.0149 10.9941 17.0913 11.0711L16.9069 10.8114ZM4.48418 2.06002L4.48416 2.06002C4.16926 2.14791 3.85351 2.31117 3.56624 2.53045L3.56623 2.53046C3.36362 2.68515 2.87241 3.16969 2.41516 3.64404C2.18371 3.88414 1.95651 4.1263 1.77262 4.33007C1.59279 4.52934 1.44389 4.70327 1.37832 4.80144C0.938318 5.46022 0.763317 6.19804 0.806327 7.13636C0.835308 7.76954 0.916618 8.24289 1.11078 8.91692C2.13228 12.4631 5.03588 16.4155 8.47826 18.9662L8.59733 18.8055L8.47826 18.9662C10.4742 20.4452 12.7684 21.6003 14.5299 22.0019C16.1637 22.3743 17.3951 22.231 18.3473 21.4908L18.3473 21.4908C18.4218 21.4329 18.593 21.2715 18.7997 21.0695C19.0108 20.8632 19.2696 20.6038 19.5255 20.341C20.0188 19.8343 20.3189 19.5129 20.5104 19.2553C20.7096 18.9873 20.7939 18.7849 20.8623 18.5209C21.0004 17.9885 20.9281 17.4696 20.6546 16.946L20.6546 16.946C20.5871 16.8168 20.4656 16.6654 20.2184 16.4002C19.9674 16.1311 19.5721 15.73 18.9407 15.0978C18.2987 14.455 17.8994 14.0604 17.6363 13.8149C17.3779 13.5739 17.2338 13.4598 17.1061 13.3987L17.0198 13.5792L17.1061 13.3987C16.7679 13.2371 16.4416 13.152 16.1111 13.1528C15.7803 13.1536 15.4581 13.2405 15.1282 13.4046L15.1282 13.4046C15.0155 13.4607 14.8868 13.558 14.7106 13.7137C14.5319 13.8715 14.2923 14.1005 13.9563 14.4311L13.172 15.2029L12.8919 15.0549C11.9648 14.565 10.924 13.7392 9.99376 12.797C9.06345 11.8546 8.25627 10.8084 7.78826 9.8855L7.75218 9.81435L8.33023 9.24383C8.9317 8.65023 9.30627 8.24687 9.52641 7.89124C9.75629 7.51988 9.81628 7.20367 9.81308 6.80058C9.81011 6.42366 9.71022 6.07856 9.50821 5.7262L9.5082 5.72618C9.48961 5.69377 9.45996 5.656 9.43207 5.62211C9.40119 5.58459 9.36172 5.53911 9.31558 5.48747C9.22315 5.38401 9.09995 5.25138 8.9565 5.10009C8.66936 4.79726 8.29764 4.41602 7.92096 4.03655C7.54426 3.65706 7.16172 3.27844 6.85288 2.98087C6.69855 2.83217 6.56187 2.70298 6.45316 2.60378C6.34914 2.50884 6.25932 2.43067 6.20446 2.3939L6.20445 2.39389C5.68558 2.04619 5.02547 1.90899 4.48418 2.06002ZM8.18756 6.54912C8.20238 6.56762 8.20881 6.57688 8.21055 6.57919C8.24098 6.64916 8.25936 6.74296 8.25964 6.84081C8.25992 6.93989 8.24166 7.02475 8.21539 7.07961C8.21382 7.08178 8.20934 7.08806 8.20023 7.09959C8.18541 7.11834 8.16421 7.14373 8.13655 7.17562C8.08145 7.23917 8.00509 7.32358 7.91249 7.42326C7.72755 7.62237 7.48144 7.87862 7.2191 8.14355L7.36121 8.28428L7.2191 8.14355C6.70366 8.66408 6.41621 8.95724 6.2693 9.16946C6.19137 9.28204 6.1431 9.38494 6.12329 9.49783C6.10432 9.60591 6.11465 9.70845 6.12611 9.80513L6.32472 9.78158L6.12611 9.80513C6.14137 9.93376 6.20023 10.102 6.27702 10.2801C6.35615 10.4636 6.46247 10.6759 6.5855 10.899C6.83143 11.3448 7.14955 11.8437 7.46352 12.2559C7.87192 12.7921 8.38973 13.3702 9.05013 14.0289C10.2493 15.225 11.2535 15.9763 12.5097 16.6116L12.5097 16.6116C12.8474 16.7823 13.0053 16.8441 13.2234 16.8441C13.3201 16.8441 13.4175 16.8396 13.5213 16.8095C13.626 16.779 13.7244 16.7264 13.8336 16.6473C14.0434 16.4953 14.3284 16.2185 14.817 15.7338C15.3011 15.2537 15.5753 14.9927 15.7645 14.8501C15.857 14.7804 15.9201 14.746 15.9695 14.7278C16.016 14.7107 16.0593 14.7045 16.1186 14.7045C16.1847 14.7045 16.2252 14.71 16.2731 14.7296C16.3268 14.7516 16.4012 14.7963 16.5224 14.8956C16.7671 15.096 17.1526 15.4757 17.8763 16.2011C18.6114 16.9378 18.9923 17.326 19.1916 17.574C19.29 17.6963 19.3336 17.772 19.3551 17.8281C19.3749 17.8797 19.3804 17.9259 19.3804 18.0031C19.3804 18.0714 19.3739 18.1202 19.3561 18.1707C19.3376 18.2235 19.3026 18.2895 19.2314 18.3852C19.085 18.5817 18.8153 18.8654 18.3136 19.3722C17.8083 19.8827 17.5263 20.1569 17.3115 20.3212C17.1098 20.4754 16.9724 20.5292 16.7465 20.588C16.6323 20.6177 16.4211 20.6381 16.1738 20.6419C15.9304 20.6456 15.6708 20.6331 15.4664 20.6043C13.5637 20.3365 10.678 18.8584 8.49997 17.0126C7.54894 16.2067 6.61501 15.257 5.85788 14.3265C4.32678 12.4446 3.29094 10.6228 2.69572 8.77711L2.50538 8.83849L2.69572 8.7771C2.38896 7.8259 2.28494 6.89183 2.40047 6.34923C2.46325 6.05447 2.51127 5.90029 2.66435 5.68677C2.82896 5.45718 3.11228 5.16346 3.66546 4.60912C4.11353 4.16013 4.36194 3.91498 4.52123 3.77441C4.67571 3.6381 4.72752 3.61726 4.7818 3.60068L4.78184 3.60067C4.98058 3.53992 5.15001 3.55952 5.32345 3.66038C5.32322 3.66024 5.32343 3.66039 5.32412 3.66089C5.3273 3.66319 5.34075 3.67287 5.36818 3.69582C5.3979 3.72068 5.43646 3.75462 5.48321 3.79712C5.57653 3.88194 5.69804 3.9968 5.83863 4.13256C6.11955 4.40383 6.47298 4.75499 6.82207 5.10831C7.17117 5.46164 7.51494 5.81614 7.77661 6.09404C7.9076 6.23315 8.01701 6.352 8.09593 6.44146C8.13552 6.48635 8.16615 6.52238 8.18756 6.54912ZM12.2535 4.63497L12.2534 4.635L17.7434 11.2875C17.7434 11.2875 17.7434 11.2875 17.7434 11.2875C17.928 11.2713 18.0866 11.164 18.1946 11.0337C18.3036 10.9022 18.3788 10.7268 18.379 10.5418C18.3793 10.2946 18.3009 9.9384 18.1842 9.56711C18.0659 9.19043 17.9016 8.77831 17.7169 8.41303L17.5384 8.50328L17.7169 8.41303C16.7604 6.52147 15.0188 5.16122 12.9485 4.68846C12.8288 4.66111 12.7171 4.63651 12.6336 4.61889C12.592 4.61011 12.5565 4.60288 12.5301 4.59787C12.5172 4.5954 12.5049 4.59319 12.4946 4.59158C12.4897 4.59081 12.4832 4.58985 12.4764 4.58912C12.473 4.58876 12.4676 4.58823 12.4612 4.58795L12.4609 4.58793C12.457 4.58776 12.4406 4.587 12.4205 4.59007C12.4002 4.59317 12.3677 4.6022 12.3484 4.60754L12.3476 4.60778C12.3208 4.61523 12.2874 4.62487 12.2535 4.63497Z" fill="white" stroke="white" stroke-width="0.4"/>
</svg>
