<svg width="30" height="17" viewBox="0 0 30 17" fill="none" xmlns="http://www.w3.org/2000/svg">
<path fill-rule="evenodd" clip-rule="evenodd" d="M7.9958 0.0927059C7.40591 0.217299 6.7772 0.470588 6.20659 0.81358C5.77794 1.07126 5.36078 1.45405 3.1996 3.57289C1.81951 4.92597 0.601619 6.16439 0.493182 6.32497C0.384745 6.48555 0.236332 6.78447 0.163416 6.98924C0.0389765 7.33882 0.0293637 7.47288 0.0070315 9.18109C-0.0211622 11.3287 0.0285431 11.9184 0.282814 12.4539C0.630868 13.1868 1.4945 13.8561 2.20766 13.9456C2.88495 14.0306 2.84029 14.0059 2.97551 14.3714C3.25528 15.1275 3.85884 15.7987 4.6077 16.1865C5.15563 16.4702 5.6028 16.5778 6.23959 16.5789C7.65519 16.5815 8.91213 15.7317 9.461 14.4008L9.60073 14.062H14.9993H20.3979L20.5376 14.4008C21.0865 15.7317 22.3435 16.5815 23.7591 16.5789C24.3958 16.5778 24.843 16.4702 25.3909 16.1865C26.1271 15.8053 26.7461 15.1201 27.0179 14.3855L27.1408 14.0533L27.7039 13.9884C28.42 13.9058 28.8685 13.6989 29.2951 13.2544C29.6654 12.8685 29.8647 12.4593 29.9433 11.923C30.0155 11.4308 30.0199 9.413 29.9499 8.8783C29.8456 8.08129 29.3209 7.33824 28.6428 7.02702C28.473 6.94909 27.3319 6.56705 26.1068 6.17803L23.8794 5.47067L21.4176 3.05921C19.0059 0.696784 18.9457 0.642892 18.4576 0.409532C17.5599 -0.0196996 17.7805 -0.00369919 12.8329 0.00161494C9.1365 0.00554278 8.33753 0.0205607 7.9958 0.0927059ZM14.1201 3.52038V5.36877L12.2884 5.36843C11.281 5.36825 10.3014 5.34307 10.1116 5.3124C9.10415 5.14985 8.30142 4.39692 8.09011 3.41647C8.05383 3.24809 8.02417 2.81424 8.02417 2.45236V1.79433L8.27329 1.73934C8.41033 1.70907 9.78191 1.68157 11.3212 1.67817L14.1201 1.67199V3.52038ZM17.5029 1.79433C17.8151 1.90685 17.9824 2.05432 19.6006 3.64243L21.359 5.36825L18.6188 5.36849L15.8785 5.36877V3.52038V1.67199H16.5211C17.0297 1.67199 17.2344 1.69752 17.5029 1.79433ZM6.37452 3.38735C6.60611 5.10832 7.80484 6.45315 9.51885 6.91478C9.83197 6.99912 10.6199 7.01309 16.6991 7.04226L23.5278 7.07502L25.6749 7.77579C26.8558 8.16124 27.8766 8.50533 27.9432 8.54045C28.2368 8.69531 28.2462 8.75342 28.2462 10.4114V11.9626L28.0749 12.1314C27.921 12.2831 27.8652 12.3003 27.5259 12.3003H27.1483L27.0235 11.9632C26.6533 10.9626 25.707 10.1232 24.636 9.84547C24.2208 9.7378 23.3931 9.72584 22.9949 9.82173C21.8106 10.1068 20.831 11.0148 20.4298 12.1992C20.3975 12.2945 20.0865 12.3003 14.9993 12.3003C9.91215 12.3003 9.60114 12.2945 9.56885 12.1992C9.16927 11.0195 8.18325 10.1057 7.00375 9.82173C6.60552 9.72584 5.77782 9.7378 5.3626 9.84547C4.29165 10.1232 3.34531 10.9626 2.9751 11.9632C2.85143 12.2974 2.84838 12.3003 2.61603 12.3003C2.32946 12.3003 2.03481 12.1304 1.87256 11.8718C1.75721 11.6878 1.7524 11.5964 1.7524 9.58924C1.7524 8.17781 1.77344 7.4574 1.81717 7.3722C1.87508 7.25934 6.27482 2.87206 6.30037 2.90169C6.30612 2.90839 6.33947 3.12696 6.37452 3.38735ZM16.2829 8.38801C15.7545 8.73586 15.7678 9.38401 16.3114 9.78401C16.4608 9.89387 16.5543 9.90312 17.5186 9.90312H18.5639L18.7892 9.72451C18.9236 9.618 19.0488 9.45009 19.0997 9.30834C19.1778 9.09046 19.1752 9.04789 19.0689 8.79518C18.997 8.62403 18.8781 8.4698 18.7553 8.38824C18.568 8.26388 18.5021 8.25689 17.5198 8.25689C16.5385 8.25689 16.4712 8.264 16.2829 8.38801ZM6.86747 11.5248C7.01653 11.5748 7.25714 11.7187 7.40215 11.8446C8.20066 12.5372 8.20066 13.7962 7.40215 14.4888C7.06823 14.7785 6.70769 14.8997 6.18203 14.899C5.8695 14.8986 5.69389 14.8647 5.4684 14.7612C4.11381 14.1396 4.11141 12.1948 5.46441 11.574C5.83017 11.4062 6.44961 11.3845 6.86747 11.5248ZM24.5302 11.5722C25.8848 12.1937 25.8848 14.1396 24.5302 14.7612C24.3048 14.8647 24.1291 14.8986 23.8166 14.899C23.291 14.8997 22.9304 14.7785 22.5965 14.4888C21.7974 13.7957 21.7979 12.5373 22.5975 11.8436C22.9382 11.5481 23.2456 11.4439 23.7915 11.439C24.1372 11.4358 24.295 11.4643 24.5302 11.5722Z" fill="#5F626B"/>
</svg>
