<svg width="462" height="235" viewBox="0 0 462 235" fill="none" xmlns="http://www.w3.org/2000/svg">
<g filter="url(#filter0_d_103_400)">
<path d="M80 101.5C80 80.7893 96.7893 64 117.5 64H338.061C362.328 64 382 83.6723 382 107.939V129C382 134.523 377.523 139 372 139H117.5C96.7893 139 80 122.211 80 101.5Z" fill="white"/>
</g>
<path d="M135.06 86.7206C135.605 85.4083 137.464 85.4083 138.01 86.7206L141.126 94.2117C141.356 94.765 141.876 95.1429 142.473 95.1908L150.561 95.8392C151.978 95.9528 152.552 97.7207 151.473 98.6453L145.311 103.923C144.856 104.313 144.657 104.925 144.796 105.508L146.679 113.4C147.008 114.782 145.504 115.875 144.292 115.134L137.368 110.905C136.856 110.592 136.213 110.592 135.702 110.905L128.778 115.134C127.565 115.875 126.061 114.782 126.391 113.4L128.274 105.508C128.413 104.925 128.214 104.313 127.759 103.923L121.597 98.6453C120.518 97.7207 121.092 95.9528 122.509 95.8392L130.596 95.1908C131.193 95.1429 131.714 94.765 131.944 94.2117L135.06 86.7206Z" fill="#F3AC41"/>
<path d="M183.792 86.7206C184.338 85.4083 186.197 85.4083 186.743 86.7206L189.858 94.2117C190.088 94.765 190.609 95.1429 191.206 95.1908L199.293 95.8392C200.71 95.9528 201.284 97.7207 200.205 98.6453L194.043 103.923C193.588 104.313 193.39 104.925 193.529 105.508L195.411 113.4C195.741 114.782 194.237 115.875 193.024 115.134L186.1 110.905C185.589 110.592 184.946 110.592 184.434 110.905L177.511 115.134C176.298 115.875 174.794 114.782 175.123 113.4L177.006 105.508C177.145 104.925 176.946 104.313 176.491 103.923L170.33 98.6453C169.25 97.7207 169.825 95.9528 171.241 95.8392L179.329 95.1908C179.926 95.1429 180.446 94.765 180.676 94.2117L183.792 86.7206Z" fill="#F3AC41"/>
<path d="M232.525 86.7206C233.071 85.4083 234.93 85.4083 235.475 86.7206L238.591 94.2117C238.821 94.765 239.341 95.1429 239.939 95.1908L248.026 95.8392C249.443 95.9528 250.017 97.7207 248.938 98.6453L242.776 103.923C242.321 104.313 242.122 104.925 242.261 105.508L244.144 113.4C244.474 114.782 242.97 115.875 241.757 115.134L234.833 110.905C234.322 110.592 233.679 110.592 233.167 110.905L226.243 115.134C225.03 115.875 223.526 114.782 223.856 113.4L225.739 105.508C225.878 104.925 225.679 104.313 225.224 103.923L219.062 98.6453C217.983 97.7207 218.557 95.9528 219.974 95.8392L228.061 95.1908C228.659 95.1429 229.179 94.765 229.409 94.2117L232.525 86.7206Z" fill="#F3AC41"/>
<path d="M281.258 86.7206C281.803 85.4083 283.662 85.4083 284.208 86.7206L287.324 94.2117C287.554 94.765 288.074 95.1429 288.671 95.1908L296.759 95.8392C298.175 95.9528 298.75 97.7207 297.671 98.6453L291.509 103.923C291.054 104.313 290.855 104.925 290.994 105.508L292.877 113.4C293.206 114.782 291.702 115.875 290.49 115.134L283.566 110.905C283.054 110.592 282.411 110.592 281.9 110.905L274.976 115.134C273.763 115.875 272.259 114.782 272.589 113.4L274.472 105.508C274.611 104.925 274.412 104.313 273.957 103.923L267.795 98.6453C266.716 97.7207 267.29 95.9528 268.707 95.8392L276.794 95.1908C277.391 95.1429 277.912 94.765 278.142 94.2117L281.258 86.7206Z" fill="#F3AC41"/>
<path d="M329.99 86.7206C330.536 85.4083 332.395 85.4083 332.941 86.7206L336.057 94.2117C336.287 94.765 336.807 95.1429 337.404 95.1908L345.491 95.8392C346.908 95.9528 347.483 97.7207 346.403 98.6453L340.242 103.923C339.787 104.313 339.588 104.925 339.727 105.508L341.609 113.4C341.939 114.782 340.435 115.875 339.222 115.134L332.298 110.905C331.787 110.592 331.144 110.592 330.633 110.905L323.709 115.134C322.496 115.875 320.992 114.782 321.322 113.4L323.204 105.508C323.343 104.925 323.145 104.313 322.689 103.923L316.528 98.6453C315.448 97.7207 316.023 95.9528 317.44 95.8392L325.527 95.1908C326.124 95.1429 326.644 94.765 326.874 94.2117L329.99 86.7206Z" fill="#F3AC41"/>
<defs>
<filter id="filter0_d_103_400" x="0.110191" y="0.0881538" width="461.78" height="234.78" filterUnits="userSpaceOnUse" color-interpolation-filters="sRGB">
<feFlood flood-opacity="0" result="BackgroundImageFix"/>
<feColorMatrix in="SourceAlpha" type="matrix" values="0 0 0 0 0 0 0 0 0 0 0 0 0 0 0 0 0 0 127 0" result="hardAlpha"/>
<feOffset dy="15.978"/>
<feGaussianBlur stdDeviation="39.9449"/>
<feComposite in2="hardAlpha" operator="out"/>
<feColorMatrix type="matrix" values="0 0 0 0 0.483615 0 0 0 0 0.483615 0 0 0 0 0.483615 0 0 0 0.1 0"/>
<feBlend mode="normal" in2="BackgroundImageFix" result="effect1_dropShadow_103_400"/>
<feBlend mode="normal" in="SourceGraphic" in2="effect1_dropShadow_103_400" result="shape"/>
</filter>
</defs>
</svg>
