<svg width="64" height="64" viewBox="0 0 64 64" fill="none" xmlns="http://www.w3.org/2000/svg">
<path fill-rule="evenodd" clip-rule="evenodd" d="M33.584 0.348496C33.3242 0.525751 32.977 0.852893 32.8125 1.07543C32.5234 1.46662 32.5136 1.63557 32.5136 6.18775C32.5136 10.7399 32.5234 10.9089 32.8125 11.3001C33.8944 12.7641 35.9072 12.7148 36.7933 11.2026C37.0727 10.7257 37.0868 10.483 37.0868 6.18775C37.0868 1.89249 37.0727 1.64975 36.7933 1.17287C36.1298 0.0406986 34.608 -0.350209 33.584 0.348496ZM10.9336 9.68657C9.87585 10.16 9.30662 11.3217 9.59388 12.4211C9.71778 12.8957 10.2872 13.5422 12.9058 16.1815C16.251 19.5533 16.5335 19.7589 17.6191 19.6129C19.0786 19.4166 19.9681 17.8399 19.4278 16.4068C19.203 15.8108 13.4853 10.0816 12.7914 9.75722C12.1197 9.44297 11.5279 9.42062 10.9336 9.68657ZM52.6907 10.8375C51.5928 11.2301 51.2799 11.7377 50.869 13.7928C49.8464 18.9077 47.2418 24.9539 43.9187 29.9269C40.3219 35.3096 35.3052 40.3411 29.9681 43.9189C24.9584 47.277 19.0408 49.8357 13.8073 50.9067C13.0297 51.0657 12.2153 51.2883 11.9977 51.4012C11.0945 51.8695 10.6239 52.9683 10.8834 54.0021C11.0097 54.505 11.2747 54.846 12.2955 55.8201C16.0896 59.4403 20.945 62.0434 26.2253 63.2883C28.8777 63.9137 29.7953 64.0051 33.371 63.9998C37.0036 63.9945 37.9331 63.8883 40.8945 63.1402C49.5626 60.9499 56.947 54.9188 60.8865 46.8118C62.4888 43.5147 63.3607 40.5888 63.8214 36.9647C64.109 34.7022 64.0398 30.411 63.6821 28.3106C62.7418 22.792 60.4014 17.632 56.9949 13.5674C55.4542 11.7292 54.6211 10.9682 53.9506 10.7865C53.2669 10.6011 53.3625 10.5972 52.6907 10.8375ZM34.8716 16.7334C29.7332 17.3471 25.7216 19.2367 22.2972 22.6563C16.7281 28.2174 14.8687 36.4299 17.5043 43.8238C17.7738 44.5797 18.0209 45.2249 18.0537 45.2577C18.1587 45.363 21.5954 43.7266 23.4385 42.6935C32.1333 37.8204 38.911 30.8535 43.6187 21.9501C44.895 19.5362 45.25 18.6549 45.0077 18.5018C44.4799 18.1682 42.2117 17.4428 40.7311 17.1342C39.1432 16.8033 36.0551 16.5921 34.8716 16.7334ZM1.1328 32.8798C0.867555 33.0589 0.504268 33.4232 0.325625 33.6891C-0.342069 34.6824 0.0592341 36.2243 1.14452 36.8359C1.66187 37.1275 1.86309 37.1394 6.25141 37.1394C10.7545 37.1394 10.8267 37.1348 11.2977 36.8165C12.7563 35.8309 12.6888 33.7261 11.1712 32.8709C10.624 32.5625 10.4877 32.5539 6.11192 32.5539C1.67116 32.5539 1.60899 32.558 1.1328 32.8798Z" fill="white"/>
</svg>
