<svg width="64" height="64" viewBox="0 0 64 64" fill="none" xmlns="http://www.w3.org/2000/svg">
<path fill-rule="evenodd" clip-rule="evenodd" d="M50.5121 0.16714C47.861 0.910105 46.1302 3.2064 46.1302 5.98057C46.1302 8.21322 47.4671 10.3055 49.524 11.2911C50.026 11.5318 50.5401 11.7286 50.6665 11.7286C50.7928 11.7286 50.8615 11.7849 50.8189 11.8537C50.7764 11.9224 50.5868 11.9787 50.3974 11.9787C49.3036 11.9787 46.8974 12.908 45.3812 13.9159C44.2244 14.685 42.4528 16.581 41.7646 17.7866C41.1213 18.9132 40.4207 20.8716 40.3086 21.8565L40.2303 22.5442L41.1892 23.2261C42.356 24.0558 44.1297 25.8857 44.9212 27.0763C46.1004 28.8502 46.8816 30.7177 47.3404 32.8597C47.5419 33.8003 47.5681 34.5841 47.5681 39.6742C47.5681 46.0682 47.5623 46.1227 46.6959 47.9571C46.1435 49.1269 45.6908 49.7768 44.8243 50.6431L44.1222 51.3453L44.1571 57.0354C44.1912 62.5848 44.1986 62.734 44.4537 63.0782C44.5976 63.2723 44.9033 63.5591 45.1333 63.7155L45.5512 64L52.1862 63.9656L58.8211 63.9312L59.2121 63.6524C60.0436 63.0592 60.009 63.5214 60.009 53.0176V43.5172L60.6894 43.1842C62.1268 42.481 63.4189 40.9409 63.8151 39.459C64.0038 38.7531 64.0209 37.8174 63.9845 30.1715L63.9443 21.669L63.5958 20.5517C62.9444 18.4624 62.0024 16.8619 60.5741 15.4169C58.6968 13.5181 56.7634 12.554 53.5072 11.8929C53.2465 11.8399 53.3137 11.7921 53.912 11.6055C56.5999 10.7665 58.3934 7.94552 58.0009 5.17396C57.6784 2.89756 56.4111 1.23332 54.3569 0.389079C53.3565 -0.0221647 51.5579 -0.125945 50.5121 0.16714ZM30.7579 12.115C29.8143 12.3 28.4717 13.0196 27.7809 13.7103C26.5839 14.9073 25.8695 16.953 26.074 18.5975C26.4004 21.2217 28.0377 23.0862 30.6259 23.7811C31.2776 23.956 31.2895 23.9662 30.8528 23.9739C30.1673 23.9862 28.7718 24.3043 27.8013 24.6696C24.1906 26.0286 21.3846 29.1672 20.4362 32.907C20.2639 33.5863 20.123 34.2425 20.123 34.3652C20.123 34.4982 20.4636 34.8294 20.967 35.1857C23.9792 37.3176 26.0888 40.4123 27.0727 44.1425C27.38 45.3078 27.4165 45.6859 27.4688 48.2538C27.5212 50.8323 27.5031 51.1737 27.2624 52.1254C26.7987 53.9586 26.052 55.2996 24.7139 56.7015L23.9766 57.474L24.0191 60.015C24.0657 62.8044 24.135 63.0869 24.9147 63.668C25.2634 63.928 25.3515 63.9312 32.0013 63.9312C38.6511 63.9312 38.7391 63.928 39.0878 63.668C39.282 63.5234 39.5534 63.2139 39.6909 62.9803C39.931 62.5727 39.9425 62.2956 39.9775 56.0239L40.014 49.4922L40.7268 49.1469C41.6522 48.6989 42.8423 47.5052 43.2945 46.5714C43.9741 45.1682 44.0298 44.5534 43.9724 39.1115C43.9209 34.237 43.9159 34.1564 43.5867 32.9222C42.5688 29.1068 39.8153 26.0299 36.2013 24.6696C35.2701 24.3191 33.8465 23.9874 33.2122 23.9733C32.8929 23.9662 32.9674 23.9204 33.5882 23.7428C35.201 23.2815 36.6347 22.0791 37.3696 20.5717C39.5302 16.1403 35.6354 11.1586 30.7579 12.115ZM10.05 24.3616C7.49344 25.1724 5.91201 27.444 5.96227 30.234C6.00866 32.8072 7.85254 35.1346 10.3704 35.7978L10.933 35.9461L9.99525 36.1069C7.40304 36.5514 5.35486 37.6109 3.47922 39.4771C1.97243 40.9765 0.925894 42.7654 0.355362 44.8164C0.129801 45.6276 0.0714096 46.2356 0.0240216 48.2677C-0.0282427 50.512 -0.00986265 50.8123 0.228203 51.5962C0.716586 53.2037 1.90841 54.5956 3.37131 55.2668L3.98323 55.5476L4.01962 59.1767C4.05513 62.7012 4.06413 62.8172 4.33495 63.1969C4.91286 64.0069 4.7867 63.9937 11.9649 63.9937H18.4606L18.8739 63.7124C19.1012 63.5576 19.405 63.2723 19.5489 63.0784C19.7978 62.7426 19.8122 62.552 19.847 59.1318L19.8836 55.5382L20.5822 55.1956C22.0962 54.453 23.3986 52.7409 23.7549 51.0245C23.9868 49.9068 23.84 46.318 23.5085 45.0016C22.4527 40.81 19.1648 37.4854 14.9736 36.3714C14.4705 36.2377 13.8077 36.0892 13.5007 36.0414L12.9427 35.9546L13.6511 35.7354C16.6576 34.8052 18.3824 31.8377 17.7354 28.7084C17.312 26.6604 15.7811 24.9756 13.7832 24.3584C12.7132 24.0279 11.0978 24.0293 10.05 24.3616Z" fill="white"/>
</svg>
